HIERARCHY
ROOT Hips
{
	OFFSET 0.000000 0.000000 0.000000
	CHANNELS 6 Xposition Yposition Zposition Zrotation Yrotation Xrotation 
	JOINT LHipJoint
	{
		OFFSET 0.000000 0.000000 0.000000
		CHANNELS 3 Zrotation Yrotation Xrotation
		JOINT LeftUpLeg
		{
			OFFSET 1.363060 -1.794630 0.839290
			CHANNELS 3 Zrotation Yrotation Xrotation
			JOINT LeftLeg
			{
				OFFSET 2.448110 -6.726130 0.000000
				CHANNELS 3 Zrotation Yrotation Xrotation
				JOINT LeftFoot
				{
					OFFSET 2.562200 -7.039590 0.000000
					CHANNELS 3 Zrotation Yrotation Xrotation
					JOINT LeftToeBase
					{
						OFFSET 0.157640 -0.433110 2.322550
						CHANNELS 3 Zrotation Yrotation Xrotation
						End Site
						{
							OFFSET 0.000000 0.000000 0.000000
						}
					}
				}
			}
		}
	}
	JOINT RHipJoint
	{
		OFFSET 0.000000 0.000000 0.000000
		CHANNELS 3 Zrotation Yrotation Xrotation
		JOINT RightUpLeg
		{
			OFFSET -1.305520 -1.794630 0.839290
			CHANNELS 3 Zrotation Yrotation Xrotation
			JOINT RightLeg
			{
				OFFSET -2.542530 -6.985550 0.000000
				CHANNELS 3 Zrotation Yrotation Xrotation
				JOINT RightFoot
				{
					OFFSET -2.568260 -7.056230 0.000000
					CHANNELS 3 Zrotation Yrotation Xrotation
					JOINT RightToeBase
					{
						OFFSET -0.164730 -0.452590 2.363150
						CHANNELS 3 Zrotation Yrotation Xrotation
						End Site
						{
							OFFSET 0.000000 0.000000 0.000000
						}
					}
				}
			}
		}
	}
	JOINT LowerBack
	{
		OFFSET 0.000000 0.000000 0.000000
		CHANNELS 3 Zrotation Yrotation Xrotation
		JOINT Spine
		{
			OFFSET 0.028270 2.035590 -0.193380
			CHANNELS 3 Zrotation Yrotation Xrotation
			JOINT Spine1
			{
				OFFSET 0.056720 2.048850 -0.042750
				CHANNELS 3 Zrotation Yrotation Xrotation
				JOINT Neck
				{
					OFFSET 0.000000 0.000000 0.000000
					CHANNELS 3 Zrotation Yrotation Xrotation
					JOINT Neck1
					{
						OFFSET -0.054170 1.746240 0.172020
						CHANNELS 3 Zrotation Yrotation Xrotation
						JOINT Head
						{
							OFFSET 0.104070 1.761360 -0.123970
							CHANNELS 3 Zrotation Yrotation Xrotation
							End Site
							{
								OFFSET 0.000000 0.000000 0.000000
							}
						}
					}
				}
				JOINT LeftShoulder
				{
					OFFSET 0.000000 0.000000 0.000000
					CHANNELS 3 Zrotation Yrotation Xrotation
					JOINT LeftArm
					{
						OFFSET 3.362410 1.200890 -0.311210
						CHANNELS 3 Zrotation Yrotation Xrotation
						JOINT LeftForeArm
						{
							OFFSET 4.983000 -0.000000 -0.000000
							CHANNELS 3 Zrotation Yrotation Xrotation
							JOINT LeftHand
							{
								OFFSET 3.483560 -0.000000 -0.000000
								CHANNELS 3 Zrotation Yrotation Xrotation
								JOINT LeftFingerBase
								{
									OFFSET 0.000000 0.000000 0.000000
									CHANNELS 3 Zrotation Yrotation Xrotation
									JOINT LeftHandIndex1
									{
										OFFSET 0.715260 -0.000000 -0.000000
										CHANNELS 3 Zrotation Yrotation Xrotation
										End Site
										{
											OFFSET 0.000000 0.000000 0.000000
										}
									}
								}
								JOINT LThumb
								{
									OFFSET 0.000000 0.000000 0.000000
									CHANNELS 3 Zrotation Yrotation Xrotation
									End Site
									{
										OFFSET 0.000000 0.000000 0.000000
									}
								}
							}
						}
					}
				}
				JOINT RightShoulder
				{
					OFFSET 0.000000 0.000000 0.000000
					CHANNELS 3 Zrotation Yrotation Xrotation
					JOINT RightArm
					{
						OFFSET -3.136600 1.374050 -0.404650
						CHANNELS 3 Zrotation Yrotation Xrotation
						JOINT RightForeArm
						{
							OFFSET -5.241900 -0.000000 -0.000000
							CHANNELS 3 Zrotation Yrotation Xrotation
							JOINT RightHand
							{
								OFFSET -3.444170 -0.000000 -0.000000
								CHANNELS 3 Zrotation Yrotation Xrotation
								JOINT RightFingerBase
								{
									OFFSET 0.000000 0.000000 0.000000
									CHANNELS 3 Zrotation Yrotation Xrotation
									JOINT RightHandIndex1
									{
										OFFSET -0.622530 -0.000000 -0.000000
										CHANNELS 3 Zrotation Yrotation Xrotation
										End Site
										{
											OFFSET 0.000000 0.000000 0.000000
										}
									}
								}
								JOINT RThumb
								{
									OFFSET 0.000000 0.000000 0.000000
									CHANNELS 3 Zrotation Yrotation Xrotation
									End Site
									{
										OFFSET 0.000000 0.000000 0.000000
									}
								}
							}
						}
					}
				}
			}
		}
	}
}
MOTION
Frames: 5
Frame Time: 0.008333
1.159032 15.729950 -5.886630 2.461895 29.145937 3.025965 -8.150679 31.352776 -13.471443 -37.763502 -16.079303 -21.685261 24.179914 -5.362381 62.175303 37.985454 -13.049758 -7.302314 -7.715911 4.848999 -12.395671 7.780517 -28.922718 -3.374491 17.082319 9.269577 -20.257616 -46.527800 -3.171277 89.679603 -76.008249 33.801843 -15.630164 6.988445 -32.500194 -8.241306 4.609538 -3.689987 30.667848 -12.023931 -5.573449 14.256248 -1.673238 4.921247 -36.854647 -0.399257 -0.086891 -13.430137 8.775765 -1.036515 4.074043 -1.276551 -4.324178 -11.224389 7.672474 30.317396 -1.356628 -79.203096 -9.221056 48.309495 -2.197009 -41.683949 16.245340 4.236714 -20.461918 6.883989 -4.370561 13.844246 -0.000000 0.000000 0.000000 0.000000 0.000000 0.000000 0.000000 -6.834852 -27.754167 -4.434776 74.573011 3.194613 72.363485 -167.809709 86.260241 -164.942233 -21.678013 19.440836 22.730446 7.724715 -13.399369 0.000000 0.000000 0.000000 0.000000 0.000000 0.000000 0.000000 
1.278259 15.704450 -5.591700 2.667381 28.690251 2.696737 -8.126114 31.438857 -12.910931 -37.453186 -15.814241 -21.322027 25.028034 -5.300453 63.117409 37.845366 -12.172691 -8.354532 -7.876455 4.852892 -13.496621 7.645448 -29.327360 -3.974404 17.462609 10.251574 -22.100560 -45.803851 -1.909128 91.027082 -72.687410 31.292419 -13.833739 7.216312 -30.496052 -8.469539 4.711588 -3.547287 30.435683 -11.832860 -5.467924 14.867060 -2.312432 4.162521 -37.472136 -0.335989 0.208093 -13.560232 8.905114 -0.892046 4.436330 -1.257859 -4.416962 -11.098736 6.883144 29.970694 -1.956712 -79.814142 -9.904641 46.647152 -1.908410 -36.967939 14.952266 3.318841 -20.273000 5.486824 -3.859717 13.588221 -0.000000 0.000000 0.000000 0.000000 0.000000 0.000000 0.000000 -6.703696 -28.432904 -4.252355 73.464621 2.955268 73.159442 -166.047759 87.486587 -164.213583 -22.034887 19.036417 23.232854 7.686486 -13.619549 0.000000 0.000000 0.000000 0.000000 0.000000 0.000000 0.000000 
1.393846 15.685055 -5.297505 2.863486 28.024156 2.398012 -8.054652 31.514833 -12.268330 -36.893366 -15.489680 -21.147345 25.556041 -5.080561 64.019019 37.815167 -11.365480 -9.312743 -7.841957 4.810376 -14.077712 7.516743 -29.780910 -4.656809 18.052039 11.298997 -23.924109 -44.808807 -0.740489 92.070546 -69.325233 28.633070 -11.820552 7.375660 -28.283557 -8.658779 4.755485 -3.371109 30.243605 -11.669294 -5.340961 15.322891 -2.870814 3.474356 -37.897454 -0.281879 0.486351 -13.749597 8.992265 -0.740951 4.810591 -1.243276 -4.460678 -10.972294 6.180347 29.614057 -2.315281 -80.516570 -10.474723 43.850454 -1.524020 -32.534915 13.264591 2.117960 -19.663321 3.674653 -3.393739 13.301921 -0.000000 0.000000 0.000000 0.000000 0.000000 0.000000 0.000000 -6.586195 -29.055917 -4.078571 72.341169 2.840704 73.942624 -164.407682 88.427672 -163.587664 -22.232453 18.669876 23.571692 7.667610 -13.777854 0.000000 0.000000 0.000000 0.000000 0.000000 0.000000 0.000000 
1.503240 15.674885 -4.992285 2.997803 27.265251 2.087622 -7.911203 31.556736 -11.478231 -35.978053 -15.138380 -21.204898 25.703277 -4.675191 64.932411 37.768441 -10.616495 -10.307980 -7.716765 4.739101 -14.414200 7.370534 -30.247989 -5.331513 18.929175 12.362585 -25.444916 -43.703955 0.300626 92.617420 -65.472136 25.787280 -9.936239 7.528370 -26.055225 -8.850922 4.661925 -3.155482 29.846390 -11.495016 -5.121721 16.022415 -3.250501 2.889183 -38.207820 -0.216285 0.698585 -14.044259 9.013341 -0.611603 5.127816 -1.233406 -4.443074 -10.836178 5.625631 29.392825 -2.437846 -81.104724 -10.957233 40.427803 -1.206512 -29.065354 11.353291 1.105371 -17.988733 1.986425 -2.920962 13.136689 -0.000000 0.000000 0.000000 0.000000 0.000000 0.000000 0.000000 -6.478992 -29.616639 -3.885638 71.185781 2.796215 74.606135 -162.753613 88.852190 -163.246762 -22.102772 17.946973 23.511721 7.629431 -13.876489 0.000000 0.000000 0.000000 0.000000 0.000000 0.000000 0.000000 
1.609020 15.670625 -4.689540 3.115464 26.399276 1.804246 -7.754670 31.638720 -10.682541 -34.972207 -14.714181 -21.340926 25.731691 -4.146865 65.813098 37.726237 -9.797749 -11.236686 -7.627699 4.670707 -14.936882 7.239104 -30.731105 -6.039267 19.984940 13.470228 -26.828256 -42.378350 1.194970 92.800484 -61.627658 22.926090 -8.096745 7.624735 -23.803059 -8.975012 4.535932 -2.975916 29.497049 -11.397534 -4.948958 16.474263 -3.401642 2.494796 -38.174203 -0.156912 0.817274 -14.384605 8.925194 -0.524874 5.372353 -1.241051 -4.339423 -10.730140 5.337415 29.246158 -2.317156 -81.592839 -11.257719 36.873854 -1.071720 -26.830004 9.371119 0.225561 -15.390680 0.445992 -2.521155 13.102476 -0.000000 0.000000 0.000000 0.000000 0.000000 0.000000 0.000000 -6.415334 -29.984922 -3.603785 69.974942 2.895893 75.081567 -161.270227 88.979381 -162.879630 -21.951224 17.467651 23.469002 7.617553 -13.904893 0.000000 0.000000 0.000000 0.000000 0.000000 0.000000 0.000000 
